PathFileType	3	(X/Y/Z)	F:\ViconData\AntennenMessung\Messung1\Session1\ID06.trc
DataRate	CameraRate	NumFrames	NumMarkers	Units	OrigDataRate	OrigDataStartFrame	OrigNumFrames
120.0	120.0	6	70	mm	120.0	238	948	
Frame#	Time	Ashort			Along			Atop			A4			Bshort			Blong			Btop			B4			Cshort			Clong			Ctop			C4			Dshort			Dlong			Dtop			D4			Eshort			Elong			Etop			E4			Fshort			Flong			Ftop			F4			Gshort			Glong			Gtop			G4			Hshort			Hlong			Htop			H4			I1			I2			I3			I4			I5			WandAshort			WandAlong			WandAtop			WandA4			WandA15			WandBshort			WandB4			WandB5			WandBtop			WandBlong			WandCshort			WandClong			WandCtop			WandC4			WandC5			Acenter			Aantenna			Bcenter			Bantenna			Ccenter			Cantenna			Dcenter			Dantenna			Ecenter			Eantenna			Fcenter			Fantenna			Gcenter			Gantenna			Hcenter			Hantenna			Icenter			Iantenna			
		X1	Y1	Z1	X2	Y2	Z2	X3	Y3	Z3	X4	Y4	Z4	X5	Y5	Z5	X6	Y6	Z6	X7	Y7	Z7	X8	Y8	Z8	X9	Y9	Z9	X10	Y10	Z10	X11	Y11	Z11	X12	Y12	Z12	X13	Y13	Z13	X14	Y14	Z14	X15	Y15	Z15	X16	Y16	Z16	X17	Y17	Z17	X18	Y18	Z18	X19	Y19	Z19	X20	Y20	Z20	X21	Y21	Z21	X22	Y22	Z22	X23	Y23	Z23	X24	Y24	Z24	X25	Y25	Z25	X26	Y26	Z26	X27	Y27	Z27	X28	Y28	Z28	X29	Y29	Z29	X30	Y30	Z30	X31	Y31	Z31	X32	Y32	Z32	X33	Y33	Z33	X34	Y34	Z34	X35	Y35	Z35	X36	Y36	Z36	X37	Y37	Z37	X38	Y38	Z38	X39	Y39	Z39	X40	Y40	Z40	X41	Y41	Z41	X42	Y42	Z42	X43	Y43	Z43	X44	Y44	Z44	X45	Y45	Z45	X46	Y46	Z46	X47	Y47	Z47	X48	Y48	Z48	X49	Y49	Z49	X50	Y50	Z50	X51	Y51	Z51	X52	Y52	Z52	X53	Y53	Z53	X54	Y54	Z54	X55	Y55	Z55	X56	Y56	Z56	X57	Y57	Z57	X58	Y58	Z58	X59	Y59	Z59	X60	Y60	Z60	X61	Y61	Z61	X62	Y62	Z62	X63	Y63	Z63	X64	Y64	Z64	X65	Y65	Z65	X66	Y66	Z66	X67	Y67	Z67	X68	Y68	Z68	X69	Y69	Z69	X70	Y70	Z70	
238	1.975	-1038.2424	214.51169	-1644.172	-1109.3085	203.67047	-1599.578	-1063.561	173.21373	-1625.7731	-1054.1758	262.1651	-1634.9534	-1352.8621	235.40033	1004.0321	-1281.4233	227.15024	1052.4967	-1322.8862	194.103	1020.903	-1284.6166	287.77133	1052.9207	813.94214	187.46674	1209.6185	892.4693	178.23898	1179.3385	844.45868	145.40414	1198.3224	860.74603	292.51392	1167.3226	1115.8359	209.79105	-1401.769	1056.3102	193.94305	-1460.1626	1095.0902	162.21716	-1423.9492	1069.8733	238.65897	-1425.9771	-1204.4655	1685.965	-1563.3163	-1129.1149	1688.2345	-1606.0436	-1173.0906	1724.4548	-1582.0077	-1133.4984	1581.0739	-1603.5997	-1239.7014	1699.1831	1119.4323	-1309.3185	1698.6534	1071.8645	-1270.4963	1736.298	1096.8918	-1245.7432	1592.9335	1110.6689	988.84772	1664.2405	1162.3646	957.4939	1700.2939	1183.8473	922.3432	1662.2748	1214.9802	939.80408	1659.3783	1159.9773	999.25549	1668.4816	-1579.4596	1058.8683	1669.9635	-1518.72	1025.1046	1708.0148	-1551.1737	1059.3541	1672.1992	-1585.6417	-232.49718	1722.7507	477.33774	-148.2655	1725.3269	477.5957	-195.54193	1760.9839	478.25339	-195.62202	1722.6537	509.05579	-195.62857	1725.845	430.72296																																														-1068.7034	209.86482	-1625.0577	-1074.1212	248.47932	-1624.3041	-1321.5161	231.78035	1025.2972	-1320.1085	270.49252	1029.8125	848.19177	183.44205	1196.4119	851.99628	222.20715	1194.4647	1088.7013	202.5668	-1428.3875	1082.6379	240.86159	-1432.5996	-1171.8494	1686.9473	-1581.8109	-1170.5596	1647.9691	-1581.6067	-1271.0007	1698.9448	1098.0459	-1271.5271	1659.9669	1099.2502	952.92157	1705.5514	1186.9801	972.81995	1733.7129	1168.7595	1026.5524	1669.1602	-1551.6466	1028.0044	1630.1901	-1552.1211	-194.40582	1723.9156	477.45441	-193.21136	1684.9431	476.61438
239	1.9833333	-1038.265	214.68579	-1644.146	-1109.3322	203.75291	-1599.6221	-1063.6016	173.1993	-1625.733	-1053.9919	262.02945	-1634.9895	-1352.9702	235.10974	1004.0548	-1281.4108	227.16307	1052.5073	-1322.9036	194.14587	1020.8633	-1284.6172	287.73453	1052.9214	813.87225	187.51456	1209.5514	892.43665	178.21225	1179.3461	844.37671	145.17197	1198.4192	860.8385	292.49631	1167.37	1115.787	209.52834	-1401.635	1056.307	193.93654	-1460.1503	1095.0719	162.26059	-1423.9316	1069.8265	238.70314	-1426.0045	-1204.4703	1685.9608	-1563.3048	-1129.1217	1688.2444	-1606.077	-1173.0891	1724.4586	-1581.9946	-1133.504	1581.0773	-1603.5869	-1239.7122	1699.2056	1119.4548	-1309.318	1698.6449	1071.8766	-1270.4755	1736.2679	1096.88	-1244.9272	1593.897	1106.3612	988.86615	1664.2585	1162.3503	957.46832	1700.33	1183.8168	922.66016	1662.019	1214.9359	939.76703	1659.4008	1159.9344	999.23145	1668.5217	-1579.5153	1058.8556	1669.9534	-1518.7246	1025.1111	1708.0168	-1551.17	1059.3567	1672.2043	-1585.6505	-232.51344	1722.7468	477.34268	-148.22183	1725.3444	477.59152	-195.54745	1760.9789	478.254	-195.62117	1722.663	509.05823	-195.62401	1725.8376	430.73273																																														-1068.8082	209.98705	-1625.0104	-1074.2725	248.59491	-1624.2521	-1321.6967	231.63683	1025.2299	-1320.4504	270.35516	1029.7395	848.12659	183.45871	1196.3817	851.92285	222.21866	1194.319	1088.7605	202.44376	-1428.2231	1082.7424	240.75873	-1432.3151	-1171.8531	1686.9492	-1581.8201	-1170.569	1647.9708	-1581.6387	-1270.9913	1698.9535	1098.0743	-1271.5302	1659.9772	1099.3219	953.13763	1705.3051	1186.7776	972.96051	1733.4589	1168.4633	1026.5477	1669.1775	-1551.6643	1027.9891	1630.2074	-1552.1605	-194.40317	1723.9211	477.45517	-193.19978	1684.9489	476.61511
240	1.9916667	-1038.2283	214.54604	-1644.1997	-1109.3428	203.71617	-1599.5979	-1063.6324	173.16515	-1625.7377	-1054.1875	262.16064	-1634.9525	-1352.8019	235.75099	1004.0558	-1281.4834	227.17368	1052.4862	-1322.9275	194.14682	1020.8436	-1284.609	287.74911	1052.9175	813.83087	187.46544	1209.6083	892.90216	178.9357	1178.7938	844.46606	145.31396	1198.312	860.67645	292.4736	1167.3032	1115.8417	209.8237	-1401.7639	1056.3904	194.03093	-1460.158	1095.0344	162.25142	-1423.9783	1069.889	238.72821	-1425.9607	-1204.4784	1685.9647	-1563.3087	-1129.1198	1688.2445	-1606.0425	-1173.0918	1724.4572	-1581.9896	-1133.4977	1581.0497	-1603.5364	-1239.6454	1699.1205	1119.4246	-1309.1711	1698.4243	1071.7866	-1270.4747	1736.2828	1096.8984	-1244.9818	1593.806	1106.4221	988.81635	1664.2052	1162.3608	957.48456	1700.3566	1183.796	922.68103	1662.1196	1214.9939	939.77698	1659.3551	1160.0026	999.24457	1668.5057	-1579.4983	1058.8417	1669.934	-1518.7174	1025.1044	1708.0186	-1551.1875	1059.3534	1672.2122	-1585.6393	-232.51192	1722.7501	477.34598	-148.23543	1725.3239	477.59497	-195.57762	1761.0293	478.37555	-195.59145	1722.6429	509.07071	-195.6115	1725.8357	430.72928																																														-1068.7849	209.89261	-1625.035	-1074.2023	248.50748	-1624.2964	-1321.4396	231.9791	1025.353	-1319.9178	270.67548	1029.9656	847.85254	183.79538	1196.3499	851.26697	222.59521	1194.3713	1088.6892	202.61086	-1428.4335	1082.6677	240.91057	-1432.6611	-1171.8545	1686.9515	-1581.8087	-1170.5687	1647.9731	-1581.6207	-1270.8732	1698.8079	1098.0277	-1271.2878	1659.8278	1099.2023	953.18768	1705.3143	1186.7356	973.03094	1733.4105	1168.3549	1026.5292	1669.1595	-1551.6715	1027.9581	1630.1887	-1552.1571	-194.44139	1723.9126	477.4584	-193.24843	1684.9429	476.49554
241	2	-1038.2334	214.5654	-1644.1963	-1109.3354	203.67094	-1599.5581	-1063.5771	173.20473	-1625.757	-1054.1827	262.18396	-1634.9573	-1352.8099	235.47548	1003.9169	-1281.4313	227.14111	1052.4519	-1322.8595	194.1855	1020.8545	-1284.6561	287.71078	1052.9442	813.8501	187.52196	1209.5797	892.83209	178.84724	1178.798	844.33899	145.40312	1198.281	860.72607	292.44138	1167.3258	1115.769	209.52803	-1401.626	1056.335	194.03256	-1460.2415	1095.1395	162.24393	-1423.923	1069.8358	238.66608	-1425.9696	-1204.4707	1685.9749	-1563.3131	-1129.1111	1688.2545	-1606.0819	-1173.0895	1724.4481	-1581.9771	-1133.4875	1581.0278	-1603.51	-1239.7009	1699.1946	1119.4448	-1309.1654	1698.3917	1071.7789	-1270.4695	1736.2762	1096.9	-1245.0415	1593.6411	1106.4812	988.8739	1664.2777	1162.3506	957.48877	1700.2767	1183.8265	922.63751	1662.1372	1215.0552	939.76312	1659.3917	1160.0042	999.25769	1668.4856	-1579.4795	1058.8418	1669.934	-1518.7181	1025.1084	1708.0144	-1551.1653	1059.3492	1672.1973	-1585.6392	-232.53851	1722.7681	477.33667	-148.23485	1725.3406	477.58746	-195.60651	1761.0427	478.38907	-195.61011	1722.6637	509.04651	-195.63303	1725.8588	430.73218																																														-1068.7476	209.88992	-1625.0392	-1074.1895	248.50101	-1624.2838	-1321.4489	231.81367	1025.2412	-1319.9976	270.52448	1029.7543	847.80188	183.79297	1196.3475	851.30115	222.5865	1194.3937	1088.8422	202.50775	-1428.1819	1082.8484	240.83064	-1432.2355	-1171.8651	1686.9611	-1581.8177	-1170.592	1647.9823	-1581.6522	-1270.8431	1698.8346	1098.0752	-1271.2323	1659.8556	1099.2987	953.00793	1705.4161	1186.8926	972.78015	1733.5923	1168.5579	1026.5477	1669.1489	-1551.6501	1027.9908	1630.1787	-1552.1366	-194.47115	1723.9297	477.44989	-193.27901	1684.9603	476.46378
242	2.0083333	-1038.2603	214.53374	-1644.1774	-1109.3259	203.67877	-1599.5781	-1063.647	173.16904	-1625.738	-1054.184	262.16922	-1634.9536	-1352.8224	235.30354	1003.954	-1281.3904	227.13896	1052.4349	-1322.9396	194.13676	1020.8328	-1284.6296	287.68967	1052.9253	813.82385	187.55388	1209.5385	892.45575	178.23697	1179.2944	844.39935	145.39299	1198.3286	860.72418	292.45084	1167.3107	1115.8495	209.8293	-1401.769	1056.3214	194.03925	-1460.2496	1095.0139	162.24214	-1423.9458	1069.8621	238.69653	-1425.9922	-1204.4669	1685.9502	-1563.2976	-1129.1069	1688.2231	-1606.0422	-1173.0986	1724.4492	-1581.9857	-1133.5271	1581.0641	-1603.5858	-1239.6458	1699.1086	1119.4127	-1309.145	1698.3766	1071.775	-1270.4786	1736.2709	1096.8922	-1244.9332	1593.8597	1106.4479	988.86304	1664.2532	1162.3898	957.53406	1700.288	1183.8813	922.32104	1662.3118	1215.0201	939.79523	1659.3951	1159.9519	999.2428	1668.4718	-1579.4797	1058.9866	1670.1212	-1518.699	1025.1138	1708.0093	-1551.1799	1059.3574	1672.2046	-1585.6343	-232.52196	1722.7493	477.33301	-148.20091	1725.3435	477.56821	-195.58643	1761.0314	478.37741	-195.59229	1722.651	509.05853	-195.63055	1725.8446	430.73175																																														-1068.7975	209.86926	-1625.0127	-1074.2168	248.48337	-1624.2498	-1321.5787	231.73242	1025.1591	-1320.1772	270.45172	1029.6147	848.14691	183.48701	1196.3369	851.96002	222.24721	1194.3103	1088.7085	202.63004	-1428.4324	1082.7286	240.93326	-1432.6874	-1171.8582	1686.9336	-1581.7935	-1170.5693	1647.9554	-1581.5939	-1270.8563	1698.7798	1098.0195	-1271.2491	1659.7993	1099.1917	952.91846	1705.5967	1187.0476	972.82831	1733.7622	1168.8459	1026.6295	1669.2278	-1551.6174	1028.1527	1630.26	-1552.057	-194.44206	1723.9207	477.43921	-193.24037	1684.9517	476.45401
243	2.0166667	-1038.2419	214.49358	-1644.1562	-1109.3455	203.69067	-1599.5753	-1063.6034	173.15579	-1625.7904	-1054.1868	262.19818	-1634.9747	-1352.7563	235.7114	1004.0425	-1281.4167	227.20956	1052.4056	-1322.9475	194.09474	1020.8934	-1284.6824	287.70529	1052.9363	813.91821	187.4713	1209.6505	892.86383	178.85329	1178.8004	844.35846	145.38776	1198.2834	860.7868	292.39868	1167.3669	1115.7765	209.54074	-1401.6185	1056.2932	194.04834	-1460.2463	1095.0443	162.18773	-1423.8655	1069.8702	238.70042	-1425.9856	-1204.4813	1685.9674	-1563.303	-1129.1403	1688.3721	-1606.5864	-1173.0881	1724.4554	-1581.9878	-1133.5192	1581.0332	-1603.5402	-1239.677	1699.1431	1119.4235	-1309.3898	1698.7854	1071.9352	-1270.5295	1736.3375	1096.9254	-1244.906	1593.8951	1106.4788	988.88379	1664.2902	1162.3704	957.55951	1700.2745	1183.8649	922.11395	1662.295	1214.9408	939.75342	1659.3859	1159.9894	999.26123	1668.4886	-1579.4899	1058.8514	1669.9485	-1518.7308	1025.1125	1708.0114	-1551.1721	1059.3524	1672.2084	-1585.6323	-232.51894	1722.7589	477.32776	-148.20151	1725.338	477.56369	-195.54674	1761.0034	478.24902	-195.62883	1722.67	509.04889	-195.65433	1725.8563	430.73639																																														-1068.7159	209.86359	-1625.0493	-1074.0946	248.48303	-1624.2699	-1321.4137	231.97617	1025.2905	-1319.8468	270.68478	1029.7834	847.81433	183.77106	1196.4047	851.3075	222.56787	1194.5059	1088.8098	202.51729	-1428.1971	1082.8851	240.84418	-1432.314	-1171.9089	1687.007	-1582.0157	-1170.6818	1648.0264	-1582.045	-1271.0879	1698.9819	1098.0264	-1271.6705	1660.0031	1099.1752	952.85077	1705.6838	1187.0958	972.82233	1733.8761	1169.0035	1026.5586	1669.1572	-1551.657	1028.0092	1630.1873	-1552.1432	-194.41028	1723.9244	477.43436	-193.21579	1684.9521	476.57812
